<svg width="150" height="150" viewBox="0 0 150 150" fill="none" xmlns="http://www.w3.org/2000/svg">
<path d="M78.6608 72.4506C80.4321 70.1286 80.3752 67.1187 78.5336 65.7278C76.692 64.3369 73.7631 65.0918 71.9918 67.4138C70.2204 69.7358 70.2773 72.7457 72.1189 74.1366C73.9605 75.5275 76.8894 74.7726 78.6608 72.4506Z" fill="#EBA7BC"/>
<path d="M76.6412 77.0105H71.0143C67.9974 77.0105 64.9467 79.1353 63.7433 82.0865L63.3535 83.0646H81.7257V82.0865C81.8105 79.1353 79.658 77.0105 76.6412 77.0105Z" fill="#EBA7BC"/>
<path d="M70.4297 94.4335C65.2265 94.4335 60.7351 92.4267 57.7861 88.7841C54.7353 85.0403 53.6845 80.0486 54.8201 74.7365C57.0912 64.1122 67.6332 55.4779 78.3108 55.4779C83.514 55.4779 88.0053 57.4847 90.9544 61.1273C94.0051 64.8711 95.0559 69.8628 93.9204 75.1918C91.6493 85.816 81.1073 94.4503 70.4297 94.4503V94.4335ZM78.3108 57.5859C68.5653 57.5859 58.9555 65.4782 56.8878 75.1749C55.8878 79.8631 56.7861 84.214 59.4301 87.4687C61.9893 90.6054 65.8875 92.3255 70.4297 92.3255C80.1751 92.3255 89.7849 84.4332 91.8527 74.7365C92.8526 70.0483 91.9543 65.6805 89.3104 62.4427C86.7511 59.306 82.853 57.5859 78.3108 57.5859Z" fill="#1F453D"/>
<path d="M87.3955 42.1722C87.7514 40.5195 87.3955 38.968 86.4464 37.7876C85.5142 36.624 84.0906 36 82.4635 36C79.2094 36 76.1247 38.5296 75.4468 41.7506C75.0909 43.4033 75.4468 44.9547 76.3959 46.1352C77.0739 46.9784 78.023 47.5349 79.0907 47.771L78.1586 52.1219C78.5314 52.105 78.8873 52.0713 79.2602 52.0713C79.6331 52.0713 79.9721 52.105 80.328 52.1219L81.2432 47.8385C84.1583 47.4337 86.7684 45.1065 87.3786 42.1722H87.3955ZM85.3278 41.7337C84.8532 43.9429 82.5821 45.8148 80.3788 45.8148C79.4128 45.8148 78.5823 45.4606 78.0569 44.803C77.4976 44.1284 77.3111 43.184 77.5315 42.1722C78.006 39.963 80.2771 38.0911 82.4804 38.0911C83.4465 38.0911 84.277 38.4453 84.8024 39.103C85.3617 39.7775 85.5481 40.7219 85.3278 41.7337Z" fill="#1F453D"/>
<path d="M69.6503 102.14L70.5825 97.7891C70.2096 97.806 69.8537 97.8397 69.4808 97.8397C69.1079 97.8397 68.769 97.806 68.413 97.7891L67.4978 102.073C64.5827 102.477 61.9726 104.805 61.3624 107.739C61.0065 109.391 61.3624 110.943 62.3116 112.123C63.2437 113.27 64.6674 113.911 66.2775 113.911C69.5316 113.911 72.6163 111.381 73.2942 108.16C73.6501 106.508 73.2942 104.956 72.3451 103.759C71.6672 102.916 70.735 102.359 69.6503 102.123V102.14ZM71.2265 107.739C70.7519 109.948 68.4808 111.82 66.2775 111.82C65.3115 111.82 64.481 111.466 63.9556 110.808C63.3963 110.134 63.2098 109.189 63.4302 108.177C63.9047 105.968 66.1758 104.096 68.3791 104.096C69.3452 104.096 70.1757 104.45 70.7011 105.108C71.2604 105.783 71.4468 106.727 71.2265 107.739Z" fill="#1F453D"/>
<path d="M112.564 70.7735C111.632 69.6267 110.208 68.9859 108.598 68.9859C105.632 68.9859 102.836 71.0939 101.836 73.8933H97.5646C97.5138 74.2474 97.463 74.5847 97.3952 74.9388C97.3274 75.293 97.2087 75.6471 97.124 75.9844H101.463C101.463 77.148 101.836 78.2273 102.548 79.1042C103.48 80.251 104.903 80.8918 106.513 80.8918C109.768 80.8918 112.852 78.3622 113.53 75.1412C113.886 73.4885 113.53 71.9371 112.581 70.7566L112.564 70.7735ZM111.446 74.7365C110.971 76.9456 108.7 78.8175 106.497 78.8175C105.53 78.8175 104.7 78.4634 104.175 77.8057C103.615 77.1311 103.429 76.1868 103.649 75.1749C104.124 72.9658 106.395 71.0939 108.598 71.0939C109.564 71.0939 110.395 71.448 110.92 72.1057C111.479 72.7803 111.666 73.7246 111.446 74.7365Z" fill="#1F453D"/>
<path d="M46.9054 76.0013H51.1765C51.2273 75.6471 51.2782 75.3099 51.3459 74.9557C51.4137 74.6016 51.5324 74.2474 51.6171 73.9102H47.2783C47.2783 72.7465 46.9054 71.6673 46.1936 70.7903C45.2614 69.6267 43.8377 69.0028 42.2107 69.0028C38.9566 69.0028 35.8719 71.5323 35.194 74.7534C34.8381 76.406 35.194 77.9575 36.1431 79.138C37.0753 80.3016 38.4989 80.9255 40.1091 80.9255C43.0751 80.9255 45.8716 78.8176 46.8715 76.0181L46.9054 76.0013ZM37.2956 75.1581C37.7702 72.9489 40.0413 71.077 42.2446 71.077C43.2106 71.077 44.0411 71.4312 44.5665 72.0889C45.1258 72.7634 45.3123 73.7078 45.0919 74.7196C44.6174 76.9288 42.3463 78.8007 40.143 78.8007C39.1769 78.8007 38.3464 78.4465 37.821 77.7889C37.2617 77.1143 37.0753 76.1699 37.2956 75.1581Z" fill="#1F453D"/>
<path d="M94.5137 92.3592C93.107 92.2074 91.6325 92.5953 90.3105 93.3879L87.9716 90.4367C87.4462 90.9089 86.9038 91.3474 86.3445 91.7858L88.6665 94.737C86.531 97.0305 86.0903 100.285 87.7682 102.427C88.5817 103.439 89.7851 104.08 91.1579 104.231C91.3613 104.248 91.5816 104.265 91.785 104.265C93.3273 104.265 94.9374 103.675 96.2594 102.579C99.039 100.302 99.7678 96.5246 97.9034 94.1636C97.1069 93.1518 95.9035 92.511 94.5137 92.3592ZM94.9035 100.943C93.8358 101.82 92.5646 102.241 91.3782 102.123C90.802 102.056 90.0054 101.837 89.4292 101.112C88.2597 99.6444 88.8699 97.1823 90.7511 95.6308C91.7003 94.8551 92.8019 94.4335 93.8697 94.4335C94.0053 94.4335 94.1409 94.4335 94.2764 94.4503C94.8527 94.5178 95.6493 94.737 96.2255 95.4622C97.395 96.9293 96.7848 99.3914 94.9035 100.943Z" fill="#1F453D"/>
<path d="M62.3963 58.1253L60.0574 55.1741C62.1929 52.8806 62.6336 49.6259 60.9557 47.4842C60.1422 46.4724 58.9388 45.8315 57.566 45.6798C55.8372 45.4943 53.9729 46.1014 52.4645 47.3324C49.6849 49.609 48.9561 53.3866 50.8205 55.7475C51.634 56.7593 52.8373 57.4002 54.2102 57.5519C54.4135 57.5688 54.6339 57.5857 54.8373 57.5857C56.0576 57.5857 57.2948 57.2147 58.4134 56.5232L60.7523 59.4744C61.2777 59.0022 61.8201 58.5638 62.3794 58.1253H62.3963ZM54.4474 55.4608C53.8712 55.3934 53.0746 55.1741 52.4984 54.449C51.3289 52.9818 51.9391 50.5197 53.8204 48.9682C54.7695 48.1925 55.8711 47.7709 56.9389 47.7709C57.0745 47.7709 57.2101 47.7709 57.3456 47.7877C57.9219 47.8552 58.7185 48.0744 59.2947 48.7996C60.4642 50.2667 59.854 52.7289 57.9727 54.2803C56.905 55.1573 55.6338 55.5957 54.4474 55.4608Z" fill="#1F453D"/>
<path d="M54.0239 90.2679L50.2105 93.4046C49.4817 92.8312 48.5834 92.4602 47.6004 92.359C45.8717 92.1735 44.0073 92.7806 42.4989 94.0117C39.7194 96.2883 38.9906 100.066 40.8549 102.427C41.6684 103.439 42.8718 104.079 44.2446 104.231C44.448 104.248 44.6683 104.265 44.8717 104.265C46.414 104.265 48.0241 103.675 49.3461 102.579C51.7867 100.572 52.6511 97.4013 51.5325 95.0573L55.329 91.9374C54.8544 91.4147 54.4137 90.8581 54.0239 90.2848V90.2679ZM47.9902 100.943C46.9225 101.82 45.6513 102.241 44.4649 102.123C43.8887 102.056 43.0921 101.837 42.5159 101.111C41.3464 99.6442 41.9566 97.1821 43.8379 95.6306C44.9056 94.7537 46.1768 94.3321 47.3631 94.4502C47.9394 94.5176 48.736 94.7368 49.3122 95.462C50.4817 96.9292 49.8715 99.3913 47.9902 100.943Z" fill="#1F453D"/>
<path d="M94.7004 59.6262L98.5138 56.4895C99.2426 57.0629 100.141 57.4339 101.124 57.5351C101.327 57.5519 101.548 57.5688 101.751 57.5688C103.293 57.5688 104.903 56.9786 106.225 55.8824C109.005 53.6058 109.734 49.8283 107.869 47.4673C107.056 46.4555 105.853 45.8147 104.48 45.6629C102.751 45.4774 100.887 46.0845 99.3782 47.3155C96.9376 49.3223 96.0732 52.4928 97.1919 54.8368L93.3954 57.9567C93.8699 58.4794 94.3106 59.036 94.7004 59.6093V59.6262ZM100.717 48.9513C101.785 48.0744 103.073 47.6528 104.242 47.7709C104.819 47.8383 105.615 48.0576 106.192 48.7827C107.361 50.2499 106.751 52.712 104.87 54.2635C103.802 55.1404 102.531 55.5789 101.344 55.4439C100.768 55.3765 99.9714 55.1573 99.3952 54.4321C98.2257 52.9649 98.8359 50.5028 100.717 48.9513Z" fill="#1F453D"/>
</svg>
