<svg width="150" height="150" viewBox="0 0 150 150" fill="none" xmlns="http://www.w3.org/2000/svg">
<g clip-path="url(#clip0_715_2063)">
<path d="M96.2821 106.41H41.3569L55.2142 41.4064H110.139L96.2821 106.41V106.41ZM44.1971 104.126H94.4039L107.276 43.6904H57.0695L44.1971 104.126Z" fill="#1F453D"/>
<path d="M71.2013 55.8645H64.2383V58.1486H71.2013V55.8645Z" fill="#1F453D"/>
<path d="M82.8141 55.8645H75.8511V58.1486H82.8141V55.8645Z" fill="#1F453D"/>
<path d="M64.7882 85.9684H57.8252V88.2524H64.7882V85.9684Z" fill="#1F453D"/>
<path d="M76.401 85.9684H69.438V88.2524H76.401V85.9684Z" fill="#1F453D"/>
<path d="M62.1543 65.1811H61.6494V65.6859V67.97V68.4748H62.1543H89.8459H90.3508V67.97V65.6859V65.1811H89.8459H62.1543Z" fill="#EBA7BC" stroke="#EBA7BC" stroke-width="1.0097"/>
<path d="M60.8027 75.5468H60.2979V76.0516V78.3357V78.8405H60.8027H88.4944H88.9992V78.3357V76.0516V75.5468H88.4944H60.8027Z" fill="#EBA7BC" stroke="#EBA7BC" stroke-width="1.0097"/>
</g>
<defs>
<clipPath id="clip0_715_2063">
<rect width="150" height="150" fill="white"/>
</clipPath>
</defs>
</svg>
