<svg width="150" height="150" viewBox="0 0 150 150" fill="none" xmlns="http://www.w3.org/2000/svg">
<path d="M41.9465 90.5724L51.3878 46.0321H121.11L111.653 90.5724H113.729L123.608 44.0001H49.7494L39.8701 90.5724H41.9465Z" fill="#1F453D"/>
<path d="M120.786 106.617H26L28.3198 95.7094H123.105L120.786 106.617ZM28.4982 104.585H119.147L120.591 97.7413H29.9582L28.5144 104.585H28.4982Z" fill="#1F453D"/>
<path d="M78.429 100.147H70.6748V102.179H78.429V100.147Z" fill="#1F453D"/>
<path fill-rule="evenodd" clip-rule="evenodd" d="M97.3368 68.0838L93.3266 67.3541C93.0772 66.5092 92.7126 65.7795 92.3481 65.0498L94.6505 61.651C94.9 61.2861 94.9 60.9213 94.6505 60.6716L91.8492 58.0025C91.5998 57.7529 91.2352 57.7529 91.005 58.0025L87.7239 60.3068C86.8797 59.942 86.1506 59.5771 85.2872 59.3275L84.5581 55.3142C84.5581 54.9493 84.1935 54.6997 83.8289 54.6997H80.0682C79.7037 54.6997 79.4542 54.9493 79.4542 55.3142L78.7251 59.3275C77.8809 59.5771 77.1518 59.942 76.2883 60.3068L73.0073 58.0025C72.7579 57.7529 72.3933 57.7529 72.1631 58.0025L69.3617 60.6716C69.2466 60.9213 69.1123 61.2861 69.3617 61.651L71.6642 64.9346C71.2997 65.7795 70.9351 66.5092 70.6857 67.3733L66.6755 68.103C66.311 68.103 66.0615 68.3526 66.0615 68.7174V72.4811C66.0615 72.846 66.311 73.2108 66.6755 73.2108L70.6857 73.9405C70.9351 74.7854 71.2997 75.5151 71.6642 76.3792L69.3617 79.6628C69.1123 79.9124 69.1123 80.2773 69.3617 80.5077L72.0288 83.3113C72.2782 83.5609 72.6428 83.5609 73.0073 83.3113L76.2883 81.007C77.1326 81.3718 77.8617 81.7367 78.7251 81.9863L79.4542 85.9996C79.4542 86.3644 79.7037 86.6141 80.0682 86.6141H83.8289C84.1935 86.6141 84.5581 86.3644 84.5581 85.9996L85.2872 81.9863C86.1314 81.7367 86.8605 81.3718 87.7239 81.007L91.1201 83.3113C91.3695 83.5609 91.7341 83.5609 91.9643 83.3113L94.6314 80.5077C94.8808 80.2581 94.8808 79.8932 94.7465 79.6628L92.3097 76.264C92.6743 75.5343 93.0388 74.8046 93.2883 73.9597L97.2984 73.23C97.663 73.23 97.9124 72.8652 97.9124 72.5003V68.7367C97.9124 68.3718 97.663 68.1222 97.2984 68.1222L97.3368 68.0838ZM82.0253 63.456C86.0355 63.456 89.3165 66.6244 89.3165 70.6185C89.3165 74.6126 86.0355 77.9154 82.0253 77.9154C78.0152 77.9154 74.7342 74.6318 74.7342 70.6185C74.7342 66.6052 78.0152 63.456 82.0253 63.456Z" fill="#EBA7BC"/>
</svg>
