<svg width="150" height="150" viewBox="0 0 150 150" fill="none" xmlns="http://www.w3.org/2000/svg">
<path d="M81.0537 36.7379L79.1738 45.5176L81.6403 46.0398L83.5201 37.2602L81.0537 36.7379Z" fill="#EBA7BC"/>
<path d="M106.619 47.1822L99.1982 53.2717L100.793 55.1935L108.214 49.104L106.619 47.1822Z" fill="#EBA7BC"/>
<path d="M111.959 73.4067H102.74V75.8514H111.959V73.4067Z" fill="#EBA7BC"/>
<path d="M53.7165 47.3726L51.7354 48.9241L56.5549 55.0101L58.5361 53.4587L53.7165 47.3726Z" fill="#EBA7BC"/>
<path d="M45.5837 73.4067H36.9795V75.8514H45.5837V73.4067Z" fill="#EBA7BC"/>
<path d="M76.9997 113.132H57.6739L58.686 108.394C58.8305 107.721 58.9912 107.033 59.1518 106.377C60.0033 102.727 60.8065 99.2856 59.1518 96.6604L54.8947 89.9214C52.3243 85.8395 51.2801 80.8933 51.9067 75.5949C51.9067 75.5629 52.3083 73.1618 52.3083 73.1618C54.9108 61.4765 66.5095 52.0162 78.1885 52.0162C86.4457 52.0162 93.1126 56.8184 95.1688 64.2778L100.245 84.0787C100.342 84.4949 100.245 84.9271 99.9722 85.2633C99.6991 85.6154 99.2653 85.8235 98.8316 85.8235H94.5744C94.4781 85.8235 94.3335 85.9516 94.3013 86.0636L93.2411 91.0419C92.3736 95.0917 88.3574 98.4052 84.277 98.4052H81.2568C80.6785 98.4052 80.052 98.9175 79.9395 99.5097L77.0318 113.132H76.9997ZM60.8226 107.919H76.0358L77.9314 99.0935C78.2527 97.5889 79.6986 96.4043 81.2247 96.4043H84.2449C87.4257 96.4043 90.5743 93.8111 91.2491 90.6257L92.3093 85.6475C92.5342 84.607 93.4981 83.8226 94.5423 83.8226H98.0765L93.1929 64.774C91.3615 58.147 85.5943 54.0011 78.1563 54.0011C67.3769 54.0011 56.6457 62.7571 54.2521 73.514C54.2521 73.514 53.8987 75.6749 53.8666 75.835C53.3043 80.6532 54.236 85.1512 56.5654 88.8329L60.8226 95.5719C62.927 98.9014 61.9953 102.919 61.0796 106.809C60.919 107.465 60.7744 108.138 60.6298 108.794L60.1318 111.115L60.8226 107.919Z" fill="#1F453D"/>
<path d="M78.1803 107.784H58.821L57.6748 113.132H77.0347L78.1803 107.784Z" fill="#EBA7BC"/>
</svg>
