<svg width="150" height="150" viewBox="0 0 150 150" fill="none" xmlns="http://www.w3.org/2000/svg">
<path d="M36.4534 39.3256L21.4595 110.032H112.962L127.956 39.3256H36.4534ZM111.529 108.009H24.182L37.8865 41.349H125.233L111.529 108.009Z" fill="#1F453D"/>
<path d="M49.0819 81.2157H37.1242L39.9109 68.0585H51.8686L49.0819 81.2157ZM40.3268 78.6093H46.9607L48.6452 70.6649H42.0113L40.3268 78.6093Z" fill="#1F453D"/>
<path d="M67.9784 81.2157H56.0207L58.8074 68.0585H70.765L67.9784 81.2157ZM59.2233 78.6093H65.8572L67.5417 70.6649H60.9078L59.2233 78.6093Z" fill="#1F453D"/>
<path d="M72.3039 60.7398H60.3463L63.1329 47.5827H75.0906L72.3039 60.7398ZM63.5488 58.1334H70.1827L71.8672 50.1891H65.2333L63.5488 58.1334Z" fill="#1F453D"/>
<path d="M87.8748 81.2157H75.9171L78.7038 68.0585H90.6615L87.8748 81.2157ZM79.1197 78.6093H85.7536L87.4381 70.6649H80.8042L79.1197 78.6093Z" fill="#1F453D"/>
<path d="M92.2004 60.7398H80.2427L83.0293 47.5827H94.987L92.2004 60.7398ZM83.4452 58.1334H90.0792L91.7636 50.1891H85.1297L83.4452 58.1334Z" fill="#1F453D"/>
<path d="M107.791 81.2157H95.8329L98.6196 68.0585H110.577L107.791 81.2157ZM99.0355 78.6093H105.669L107.354 70.6649H100.72L99.0355 78.6093Z" fill="#1F453D"/>
<path d="M44.569 101.671H32.6113L35.398 88.5136H47.3557L44.569 101.671ZM35.8139 99.0643H42.4478L44.1323 91.12H37.4984L35.8139 99.0643Z" fill="#1F453D"/>
<path d="M64.4751 101.671H52.5174L55.3041 88.5136H67.2618L64.4751 101.671ZM55.72 99.0643H62.354L64.0384 91.12H57.4045L55.72 99.0643Z" fill="#1F453D"/>
<path d="M84.8439 101.671H72.8862L75.6728 88.5136H87.6305L84.8439 101.671ZM76.0887 99.0643H82.7227L84.4071 91.12H77.7732L76.0887 99.0643Z" fill="#1F453D"/>
<path d="M103.374 101.671H91.4166L94.2033 88.5136H106.161L103.374 101.671ZM94.6192 99.0643H101.253L102.938 91.12H96.3037L94.6192 99.0643Z" fill="#1F453D"/>
<path d="M112.137 60.7398H100.179L102.966 47.5827H114.924L112.137 60.7398ZM103.382 58.1334H110.016L111.7 50.1891H105.066L103.382 58.1334Z" fill="#1F453D"/>
<path d="M53.4079 60.7398H41.4502L44.2369 47.5827H56.1946L53.4079 60.7398Z" fill="#EBA7BC"/>
</svg>
