<svg width="150" height="150" viewBox="0 0 150 150" fill="none" xmlns="http://www.w3.org/2000/svg">
<g clip-path="url(#clip0_715_1985)">
<path d="M44.2672 40.6654L31.9805 98.4099H81.4807C81.3201 97.7521 81.1755 97.0782 81.0631 96.4044H34.4539L43.3999 54.3675H111.483L107.998 70.7811C108.656 70.9255 109.298 71.086 109.941 71.2785L116.462 40.6654H44.2672ZM43.8335 52.3619L45.8894 42.671H113.972L111.916 52.3619H43.8335V52.3619Z" fill="#1F453D"/>
<path d="M113.587 91.8637H120.67C120.236 84.5313 115.257 78.4183 108.495 76.3326C111.418 79.4292 113.394 85.125 113.587 91.8637Z" fill="#EBA7BC"/>
<path d="M111.515 91.8637C111.226 83.0873 107.612 75.8833 103.356 75.8833C99.0996 75.8833 95.4859 83.1034 95.1968 91.8637H111.531H111.515Z" fill="#EBA7BC"/>
<path d="M98.2163 76.3165C91.4546 78.4184 86.4756 84.5153 86.042 91.8477H93.1249C93.3177 85.109 95.2932 79.4131 98.2163 76.3165Z" fill="#EBA7BC"/>
<path d="M93.1249 94.0939H86.042C86.4756 101.426 91.4546 107.539 98.2163 109.625C95.2932 106.529 93.3177 100.833 93.1249 94.0939Z" fill="#EBA7BC"/>
<path d="M95.1968 94.0939C95.4859 102.87 99.0997 110.074 103.356 110.074C107.612 110.074 111.226 102.854 111.515 94.0939H95.1808H95.1968Z" fill="#EBA7BC"/>
<path d="M108.495 109.625C115.257 107.523 120.236 101.426 120.67 94.0939H113.587C113.394 100.833 111.418 106.529 108.495 109.625Z" fill="#EBA7BC"/>
</g>
<defs>
<clipPath id="clip0_715_1985">
<rect width="150" height="150" fill="white"/>
</clipPath>
</defs>
</svg>
