<svg width="150" height="150" viewBox="0 0 150 150" fill="none" xmlns="http://www.w3.org/2000/svg">
<path d="M110.967 105.628L100.816 94.7296C102.924 92.1022 104.134 88.9072 104.265 85.5013C104.559 76.8569 97.7098 69.5748 88.9809 69.2828C84.7308 69.1369 80.726 70.629 77.6365 73.4997C74.547 76.3703 72.7653 80.2465 72.6182 84.4471C72.471 88.6477 73.9913 92.6374 76.8682 95.7027C79.7615 98.768 83.6683 100.536 87.902 100.682C88.0818 100.682 88.278 100.682 88.4578 100.682C92.479 100.682 96.2877 99.1897 99.2464 96.4488C99.3118 96.3839 99.3772 96.319 99.4426 96.2541L109.463 107.023L110.967 105.645V105.628ZM87.9837 98.622C84.3058 98.4923 80.8894 96.9677 78.3884 94.2917C75.8711 91.6157 74.5634 88.1449 74.6778 84.4958C74.8086 80.8466 76.3451 77.457 79.0423 74.9593C81.6087 72.5752 84.927 71.2777 88.4414 71.2777C88.6049 71.2777 88.7684 71.2777 88.9155 71.2777C96.5166 71.5372 102.483 77.8786 102.221 85.404C102.091 89.0531 100.554 92.4428 97.857 94.9242C95.1598 97.4219 91.629 98.7518 87.9837 98.5896V98.622Z" fill="#EBA7BC"/>
<path d="M51.109 97.2902H37.5742L45.6657 59.5498H59.1841L51.0927 97.2902H51.109ZM49.4417 95.2629L56.6668 61.5771H47.3167L40.0916 95.2629H49.4417Z" fill="#1F453D"/>
<path d="M89.7845 64.5451C89.7845 64.5451 89.8172 64.5451 89.8335 64.5451L95.7182 37.1359H105.068L98.7096 66.8157C99.3471 67.1401 99.9683 67.4807 100.573 67.8699L107.586 35.1086H94.0509L87.7412 64.5776C88.4114 64.5451 89.098 64.5289 89.7845 64.5451Z" fill="#1F453D"/>
<path d="M69.842 95.2629H61.4726L71.3295 49.2187H80.6796L76.544 68.5349C77.3123 67.9834 78.1132 67.4807 78.9469 67.0428L83.1969 47.1914H69.6621L58.9226 97.2902H70.9699C70.5449 96.6414 70.1525 95.9603 69.8093 95.2629H69.842Z" fill="#1F453D"/>
<rect width="4.33623" height="16.6407" transform="matrix(0.715481 -0.698632 0.697553 0.716533 97.7168 96.7755)" fill="#EBA7BC"/>
</svg>
