<svg width="150" height="150" viewBox="0 0 150 150" fill="none" xmlns="http://www.w3.org/2000/svg">
<path d="M82.34 63.8869C80.0465 63.8869 78.0157 62.9646 76.6502 61.2765C75.1096 59.3795 74.5493 56.6994 75.1446 53.8975C76.265 48.6418 81.1495 44.3781 86.0339 44.3781C88.3273 44.3781 90.3582 45.3004 91.7237 46.9885C93.2643 48.8855 93.8245 51.5655 93.2118 54.35C92.0914 59.6058 87.2069 63.8695 82.3224 63.8695L82.34 63.8869ZM77.2979 54.3674C76.8428 56.508 77.2279 58.5268 78.3484 59.919C79.2937 61.085 80.7118 61.7115 82.34 61.7115C86.244 61.7115 90.1656 58.2135 91.0935 53.915C91.5486 51.7744 91.1635 49.7556 90.043 48.3634C89.0977 47.1974 87.6796 46.5534 86.0514 46.5534C82.1474 46.5534 78.2258 50.0515 77.2979 54.35V54.3674Z" fill="#1F453D"/>
<path d="M84.071 86.6225C87.2044 82.519 87.1098 77.2044 83.8597 74.7522C80.6097 72.2999 75.4349 73.6385 72.3016 77.742C69.1682 81.8455 69.2629 87.1601 72.5129 89.6123C75.7629 92.0646 80.9377 90.726 84.071 86.6225Z" fill="#EBA7BC"/>
<path d="M80.4839 94.6903H70.5399C65.2003 94.6903 59.8081 98.4493 57.6898 103.67L56.9895 105.393H89.465L89.5 103.67C89.605 98.4667 85.8235 94.6903 80.4839 94.6903Z" fill="#EBA7BC"/>
<path d="M104.469 81.2378C102.175 81.2378 100.144 80.3154 98.7788 78.6273C97.2382 76.7304 96.678 74.0503 97.2732 71.2658C98.3937 66.0101 103.278 61.7463 108.163 61.7463C110.456 61.7463 112.487 62.6687 113.852 64.3568C115.393 66.2537 115.953 68.9338 115.34 71.7183C114.22 76.974 109.336 81.2378 104.451 81.2378H104.469ZM99.4266 71.7183C98.9714 73.8589 99.3566 75.8776 100.477 77.2699C101.422 78.4359 102.84 79.0624 104.469 79.0624C108.373 79.0624 112.294 75.5644 113.222 71.2658C113.677 69.1252 113.292 67.1065 112.172 65.7142C111.226 64.5482 109.808 63.9217 108.18 63.9217C104.276 63.9217 100.354 67.4197 99.4266 71.7183Z" fill="#1F453D"/>
<path d="M68.3693 70.9873L66.9338 69.3514C69.7174 66.9323 73.2188 65.5575 76.5626 65.5575H86.5066C89.7454 65.5575 92.564 66.8105 94.4373 69.0729L92.7391 70.4478C91.286 68.69 89.0801 67.7329 86.5066 67.7329H76.5626C73.744 67.7329 70.7678 68.9163 68.3869 70.9873H68.3693Z" fill="#1F453D"/>
<path d="M49.2341 95.7692H31.377L32.69 92.5496C34.9659 86.9632 40.7957 82.8909 46.5555 82.8909H56.4995C59.038 82.8909 61.3139 83.6566 63.1171 85.1011L61.7341 86.7892C60.3335 85.658 58.5303 85.0663 56.4995 85.0663H46.5555C41.6536 85.0663 36.6816 88.5469 34.7208 93.3676L34.6333 93.5938H49.2341V95.7692Z" fill="#1F453D"/>
<path d="M118.685 95.7692H101.668V93.5938H116.531V92.9325C116.584 90.7397 115.848 88.7558 114.448 87.3287C113.012 85.8668 110.946 85.0663 108.636 85.0663H98.6916C96.6783 85.0663 94.5774 85.658 92.6517 86.7892L91.5487 84.9097C93.8071 83.587 96.2931 82.8909 98.6916 82.8909H108.636C111.542 82.8909 114.168 83.9177 116.024 85.7972C117.844 87.642 118.807 90.1828 118.755 92.9673L118.702 95.7518L118.685 95.7692Z" fill="#1F453D"/>
<path d="M52.3502 81.2378C50.0568 81.2378 48.026 80.3154 46.6605 78.6273C45.1198 76.7304 44.5596 74.0503 45.1549 71.2658C46.2753 66.0101 51.1598 61.7463 56.0442 61.7463C58.3376 61.7463 60.3684 62.6687 61.734 64.3568C63.2746 66.2537 63.8348 68.9338 63.2221 71.7183C62.1016 76.974 57.2172 81.2378 52.3327 81.2378H52.3502ZM47.3082 71.7183C46.853 73.8589 47.2382 75.8776 48.3586 77.2699C49.304 78.4359 50.7221 79.0624 52.3502 79.0624C56.2543 79.0624 60.1759 75.5644 61.1037 71.2658C61.5589 69.1252 61.1738 67.1065 60.0533 65.7142C59.1079 64.5482 57.6899 63.9217 56.0617 63.9217C52.1577 63.9217 48.2361 67.4197 47.3082 71.7183Z" fill="#1F453D"/>
</svg>
