<svg width="150" height="150" viewBox="0 0 150 150" fill="none" xmlns="http://www.w3.org/2000/svg">
<path d="M33.6768 103.635H53.3914L57.5804 83.7954H37.8657L33.6768 103.635Z" fill="#EBA7BC"/>
<path d="M91.5127 65.3038H111.212L115.401 45.4645H95.7017L91.5127 65.3038Z" fill="#EBA7BC"/>
<path d="M87.5416 48.3166V46.3578H54.9019L49.545 71.7446L44.0324 64.6927L42.4907 65.8994L49.9187 75.3802L61.162 66.0561L59.9318 64.536L51.6006 71.4469L56.4903 48.3166H87.5416Z" fill="#1F453D"/>
<path d="M106.867 83.1842L99.439 73.7034L88.1957 83.0432L89.426 84.5476L97.7572 77.6368L92.8207 101.033H61.7383V102.992H94.3936L99.8127 77.339L105.325 84.4066L106.867 83.1842Z" fill="#1F453D"/>
</svg>
