<svg width="150" height="150" viewBox="0 0 150 150" fill="none" xmlns="http://www.w3.org/2000/svg">
<g clip-path="url(#clip0_715_2021)">
<path d="M39.2474 39.3462L25.5464 103.737H80.7443C80.5652 103.004 80.404 102.252 80.2786 101.501H28.3045L38.2802 54.6255H114.2L110.313 72.9284C111.048 73.0894 111.764 73.2683 112.48 73.483L119.752 39.3462H39.2474ZM38.7638 52.389L41.0562 41.5826H116.976L114.683 52.389H38.7638V52.389Z" fill="#1F453D"/>
<path fill-rule="evenodd" clip-rule="evenodd" d="M119.833 95.3036L115.971 94.6008C115.731 93.7871 115.38 93.0844 115.029 92.3817L117.246 89.1084C117.486 88.757 117.486 88.4056 117.246 88.1652L114.548 85.5947C114.308 85.3542 113.957 85.3542 113.735 85.5947L110.575 87.8138C109.762 87.4625 109.06 87.1111 108.228 86.8707L107.526 83.0056C107.526 82.6542 107.175 82.4138 106.824 82.4138H103.202C102.851 82.4138 102.611 82.6542 102.611 83.0056L101.909 86.8707C101.096 87.1111 100.394 87.4625 99.562 87.8138L96.4022 85.5947C96.1619 85.3542 95.8108 85.3542 95.5891 85.5947L92.8912 88.1652C92.7803 88.4056 92.651 88.757 92.8912 89.1084L95.1087 92.2707C94.7576 93.0844 94.4065 93.7871 94.1662 94.6193L90.3042 95.3221C89.9531 95.3221 89.7129 95.5625 89.7129 95.9139V99.5385C89.7129 99.8899 89.9531 100.241 90.3042 100.241L94.1662 100.944C94.4065 101.758 94.7576 102.46 95.1087 103.293L92.8912 106.455C92.651 106.695 92.651 107.047 92.8912 107.269L95.4598 109.969C95.7 110.209 96.0511 110.209 96.4022 109.969L99.562 107.75C100.375 108.101 101.077 108.452 101.909 108.693L102.611 112.558C102.611 112.909 102.851 113.15 103.202 113.15H106.824C107.175 113.15 107.526 112.909 107.526 112.558L108.228 108.693C109.042 108.452 109.744 108.101 110.575 107.75L113.846 109.969C114.086 110.209 114.437 110.209 114.659 109.969L117.228 107.269C117.468 107.028 117.468 106.677 117.338 106.455L114.992 103.182C115.343 102.479 115.694 101.776 115.934 100.963L119.796 100.26C120.147 100.26 120.387 99.9084 120.387 99.557V95.9324C120.387 95.581 120.147 95.3406 119.796 95.3406L119.833 95.3036ZM105.087 90.8467C108.949 90.8467 112.109 93.8981 112.109 97.7447C112.109 101.591 108.949 104.772 105.087 104.772C101.225 104.772 98.0652 101.61 98.0652 97.7447C98.0652 93.8796 101.225 90.8467 105.087 90.8467Z" fill="#EBA7BC"/>
</g>
<defs>
<clipPath id="clip0_715_2021">
<rect width="150" height="150" fill="white"/>
</clipPath>
</defs>
</svg>
